<svg width="218" height="50" viewBox="0 0 218 50" fill="none" xmlns="http://www.w3.org/2000/svg">
<path d="M0 46.8438H5.75L21.9375 0.625H22.2188L42.25 46.8438H48V48H25.2812V46.8438H32L26.0625 32.625H12.0938L7.03125 46.8438H13.75V48H0V46.8438ZM12.5312 31.5H25.5312L18.5 14.7188L12.5312 31.5ZM71.4688 3.1875H88.75L99.3125 32.625L107.312 3.1875H123.938V4.34375H117.219V46.8438H123.938V48H101.531V46.8438H108.25V5.125L96.0312 49.9062H95.7812L79.4688 5.125V46.8438H86.25V48H71.4688V46.8438H78.1875V4.34375H71.4688V3.1875ZM148.406 3.1875H170.812V4.34375H164.062V46.8438H170.812V48H148.406V46.8438H155.125V4.34375H148.406V3.1875ZM195.219 3.1875H217.625V4.34375H210.875V46.8438H217.625V48H195.219V46.8438H201.938V4.34375H195.219V3.1875Z" fill="#010101"/>
</svg>
